<svg width="48" height="48" viewBox="0 0 48 48" fill="none" xmlns="http://www.w3.org/2000/svg">
<g clip-path="url(#clip0)">
<path d="M26.1248 39.2679L27.1339 36.5805L24.0381 34.3024L20.9321 36.5883L22.0546 39.2679H26.1248Z" fill="#EF4C35"/>
<path d="M22.0546 39.2679L22.1138 39.4093L20.7281 47.9999H27.4623L26.075 39.401L26.1248 39.2679H22.0546Z" fill="#DD3E2B"/>
<path d="M21.5917 47.9999L22.9943 39.3049L21.639 36.0684L17.2903 31.9337L18.1416 38.1334L20.9051 47.9999H21.5917Z" fill="#D2D2D7"/>
<path d="M27.2982 47.9999L30.0935 38.0195L30.9453 31.8184L26.4205 36.056L25.1975 39.3132L26.5988 47.9999H27.2982Z" fill="#E4E4EA"/>
<path d="M27.3625 37.7973C28.2574 38.4559 28.7986 37.8696 29.0008 37.5645L31.852 31.7041L28.1722 29.2753L27.3036 30.8393L24.0672 34.1989L20.9177 31.1311L20.3073 29.0096L16.2246 31.704L19.0086 37.4263C19.0856 37.5785 19.6502 38.5894 20.727 37.7981L24.0381 35.3612L27.1939 37.6835C27.244 37.714 27.2993 37.7507 27.3625 37.7973Z" fill="#F5F5F7"/>
<path d="M24.5076 0H23.6441C17.7449 0 12.9459 4.79962 12.9459 10.6985V12.1254V13.4609V15.7173C12.9459 15.7173 15.3815 15.4757 15.6812 14.2945L15.6796 14.2933C15.7824 14.1814 15.8684 14.054 15.929 13.9115C17.3106 13.8699 23.7645 13.8197 27.4499 9.36851C27.8898 10.6552 29.3776 13.0916 32.2406 13.8588C32.2996 14.0141 32.3873 14.1542 32.4945 14.2755L32.4708 14.2946C32.7703 15.4758 35.2061 15.7173 35.2061 15.7173V13.4517V12.1254V10.6985C35.2061 4.79962 30.4066 0 24.5076 0ZM32.5736 13.5262L32.6766 13.4516H32.6912L32.5234 13.5759L32.5736 13.5262ZM32.5212 13.5584L32.5327 13.522L32.5684 13.4516H32.5829L32.5405 13.54L32.5212 13.5584ZM32.2374 13.7778L32.2334 13.7721L32.4973 13.5813L32.435 13.6414L32.2422 13.784L32.2374 13.7778ZM32.4552 13.7158L32.3726 13.8867C32.3719 13.8865 32.3717 13.8865 32.3711 13.8861L32.3595 13.8809C32.3577 13.88 32.3555 13.8787 32.3539 13.8779L32.4885 13.6102L32.4921 13.6068L32.4552 13.7158Z" fill="#694B4B"/>
<path d="M14.8316 13.4608V12.1254V10.6985C14.8316 4.97065 19.3562 0.280813 25.0187 0.0130639C24.849 0.00490771 24.6788 -6.10352e-05 24.5076 -6.10352e-05H23.6441C17.7449 -6.10352e-05 12.9459 4.79955 12.9459 10.6985V12.1254V13.4608V15.7172C12.9459 15.7172 14.0222 15.6098 14.8317 15.1915V13.4608H14.8316Z" fill="#563B3B"/>
<path d="M33.9211 14.1663C33.5117 14.0387 33.067 14.1132 32.7218 14.3669C32.3769 14.6208 32.1732 15.0239 32.1732 15.4522V19.2906C32.1732 19.7188 32.3768 20.1216 32.7218 20.3751C32.9562 20.5477 33.2364 20.6374 33.5202 20.6374C33.654 20.6374 33.7897 20.6176 33.9207 20.5763C34.179 20.4961 34.4325 20.3799 34.6746 20.2314C34.8169 20.1442 34.9419 20.0307 35.043 19.898C35.1915 19.8213 35.3246 19.7178 35.4355 19.5927C35.9797 18.9772 36.2795 18.1884 36.2795 17.3709C36.2795 15.8938 35.3319 14.6058 33.9211 14.1663Z" fill="#FBCB99"/>
<path d="M15.469 14.3667C15.1239 14.1131 14.6788 14.0386 14.2699 14.1658C12.8593 14.6059 11.911 15.8938 11.911 17.3709C11.911 18.8485 12.8592 20.1364 14.2699 20.5763C14.401 20.6175 14.5363 20.6374 14.6708 20.6374C14.9543 20.6374 15.2345 20.5477 15.469 20.3753C15.8144 20.1216 16.0179 19.7187 16.0179 19.2905V15.4516C16.0179 15.0237 15.8144 14.6206 15.469 14.3667Z" fill="#EDBA89"/>
<path d="M27.773 25.9817C27.5082 25.7283 27.1529 25.5954 26.7839 25.609L26.7382 25.6111C26.656 25.6139 26.574 25.6246 26.4935 25.6422C25.9733 25.7579 25.4431 25.8167 24.919 25.8167H23.2722C22.7321 25.8167 22.1867 25.7546 21.6506 25.6318C21.2505 25.5396 20.831 25.6352 20.5104 25.8909C20.1895 26.1464 20.0026 26.5347 20.0026 26.9444V30.8626L20.0018 30.8758C19.9805 31.2645 20.128 31.6435 20.4067 31.9153L23.1132 34.5516C23.3648 34.7967 23.7022 34.9332 24.0527 34.9332C24.06 34.9332 24.0675 34.9332 24.0746 34.9332C24.4331 34.9273 24.7747 34.779 25.0231 34.5206L27.8114 31.6263C28.0534 31.3753 28.1884 31.0404 28.1884 30.6921V26.9548C28.1883 26.5873 28.0384 26.2359 27.773 25.9817Z" fill="#FBCB99"/>
<path d="M24.3258 34.147L21.6191 31.511C21.3404 31.2393 21.1927 30.8606 21.214 30.4716L21.2152 30.4583V26.5401C21.2152 26.1955 21.3486 25.8674 21.5814 25.6197C21.2026 25.5535 20.8126 25.6503 20.5106 25.8908C20.1897 26.1464 20.0027 26.5346 20.0027 26.9444V30.8625L20.002 30.8758C19.9807 31.2644 20.1282 31.6434 20.4069 31.9153L23.1134 34.5515C23.365 34.7966 23.7024 34.9332 24.0529 34.9332C24.0602 34.9332 24.0677 34.9332 24.0748 34.9332C24.4333 34.9273 24.7749 34.7789 25.0232 34.5205L25.0352 34.5079C24.7695 34.4621 24.5214 34.3378 24.3258 34.147Z" fill="#EDBA89"/>
<path d="M31.9701 13.0668C31.8072 13.0061 31.6534 12.9354 31.5033 12.8601C29.2399 11.804 28.3004 10.4304 27.9223 9.61093C27.8999 9.57999 27.8773 9.54587 27.8543 9.50302C27.5838 9.00568 27.1622 9.32049 27.1622 9.32049L27.1604 9.31946C25.0467 10.9407 22.7379 11.8888 20.8185 12.4404C20.0713 12.6612 19.3555 12.8208 18.7082 12.9369C17.4216 13.1731 16.5945 13.2041 16.5945 13.2041C15.8898 13.2548 15.3439 13.8415 15.3439 14.5479V20.044C15.3439 24.4156 18.9008 27.972 23.2721 27.972H24.9189C29.2901 27.972 32.8467 24.4157 32.8467 20.044V14.3289C32.8467 13.7662 32.4969 13.2633 31.9701 13.0668Z" fill="#FBCB99"/>
<path d="M16.9605 20.044V14.5479C16.9605 13.8415 17.5061 13.2549 18.2107 13.2041C18.2107 13.2041 19.0376 13.1732 20.3244 12.9369C20.972 12.8209 21.6878 12.6612 22.4352 12.4404C24.1335 11.9519 26.1374 11.1522 28.0416 9.85106C27.9968 9.76687 27.9569 9.68662 27.9222 9.61087C27.8998 9.57993 27.8772 9.54581 27.8542 9.50296C27.5837 9.00562 27.1621 9.32043 27.1621 9.32043L27.1603 9.3194C25.0466 10.9406 22.7378 11.8887 20.8184 12.4403C20.0712 12.6611 19.3554 12.8208 18.7081 12.9368C17.4215 13.1731 16.5944 13.204 16.5944 13.204C15.8897 13.2547 15.3438 13.8414 15.3438 14.5478V20.0439C15.3438 24.4156 18.9007 27.972 23.272 27.972H24.8879C20.517 27.972 16.9605 24.4156 16.9605 20.044Z" fill="#EDBA89"/>
<path d="M8.66099 47.9999H21.7906L17.0856 31.2031L12.2332 33.2252L12.2267 33.2276C10.2559 33.9194 6.92071 36.4289 6.92071 41.445V46.2616C6.94677 46.7812 7.16661 47.9999 8.66099 47.9999Z" fill="#324A5E"/>
<path d="M41.0793 46.3201V41.4454C41.0793 36.3675 37.6106 33.8515 35.7661 33.2251L31.0963 31.2792L26.4124 48.0001H39.3426C40.7836 48 41.0395 46.8665 41.0793 46.3201Z" fill="#324A5E"/>
<path d="M17.0856 31.2031L12.2332 33.2252L12.2267 33.2276C10.2559 33.9194 6.92071 36.4289 6.92071 41.4451V46.2617C6.94677 46.7811 7.16671 47.9998 8.66099 47.9998H8.87877V41.4451C8.87877 36.4288 12.2138 33.9193 14.1847 33.2276L14.1912 33.2252L17.2903 31.9337L17.0856 31.2031Z" fill="#283D4C"/>
<path d="M35.6112 47.9999V41.3033C35.6112 40.8828 35.2704 40.542 34.8499 40.542C34.4293 40.542 34.0886 40.8828 34.0886 41.3033V47.9999H35.6112Z" fill="#283D4C"/>
<path d="M14.1021 47.9999V41.3033C14.1021 40.8828 13.7613 40.542 13.3408 40.542C12.9202 40.542 12.5794 40.8828 12.5794 41.3033V47.9999H14.1021Z" fill="#283D4C"/>
<path d="M24.8682 20.6893C25.148 20.6893 25.3757 20.917 25.3757 21.1968C25.3757 21.4767 25.148 21.7044 24.8682 21.7044H23.5712C23.2914 21.7044 23.0637 21.4767 23.0637 21.1968V18.7228C23.0637 18.4429 23.2914 18.2152 23.5712 18.2152C23.8511 18.2152 24.0788 18.4429 24.0788 18.7228V20.6893H24.8682Z" fill="#EDBA89"/>
</g>
<defs>
<clipPath id="clip0">
<rect width="48" height="48" fill="white"/>
</clipPath>
</defs>
</svg>
